<?xml version="1.0" standalone="no"?>
<!DOCTYPE svg PUBLIC "-//W3C//DTD SVG 20010904//EN"
 "http://www.w3.org/TR/2001/REC-SVG-20010904/DTD/svg10.dtd">
<svg version="1.0" xmlns="http://www.w3.org/2000/svg"
 width="638.000000pt" height="638.000000pt" viewBox="0 0 638.000000 638.000000"
 preserveAspectRatio="xMidYMid meet">
<metadata>
Created by potrace 1.14, written by Peter Selinger 2001-2017
</metadata>
<g transform="translate(0.000000,638.000000) scale(0.100000,-0.100000)"
fill="#000000" stroke="none">
<path d="M2824 5344 c-59 -39 -92 -74 -120 -123 -28 -50 -49 -168 -46 -249 2
-54 24 -112 42 -112 5 0 11 -8 15 -19 3 -10 28 -32 55 -49 47 -29 50 -34 50
-71 0 -45 1 -45 -102 -56 -32 -4 -60 -11 -63 -16 -4 -5 -12 -9 -19 -9 -7 0
-47 -19 -88 -43 -110 -63 -238 -195 -297 -307 -13 -25 -30 -52 -37 -60 -15
-18 -44 -165 -44 -221 0 -54 32 -163 77 -267 l39 -88 -22 -49 c-13 -28 -23
-56 -23 -63 -1 -7 -10 -34 -22 -60 -52 -118 -68 -161 -84 -222 -10 -36 -21
-74 -25 -85 -8 -21 -25 -115 -36 -200 -4 -27 -10 -55 -15 -60 -28 -37 -42
-463 -20 -608 12 -76 50 -170 94 -234 64 -94 79 -124 75 -155 -5 -32 9 -116
22 -133 4 -5 15 -34 25 -64 l18 -55 -52 -45 c-88 -78 -111 -130 -72 -165 16
-15 41 -16 255 -10 197 6 241 10 258 23 23 19 23 25 10 181 -5 63 -8 116 -7
117 1 2 125 -9 276 -23 257 -25 287 -26 479 -15 113 6 220 15 239 21 19 5 38
7 42 4 5 -3 9 -67 9 -143 0 -150 2 -157 57 -168 60 -12 236 -14 246 -4 6 6 46
11 89 11 84 0 131 14 162 49 18 20 18 22 3 39 -10 10 -17 23 -17 29 0 17 -66
70 -104 84 -33 12 -36 16 -36 55 0 22 -3 74 -6 115 l-6 74 34 36 c27 27 57 42
124 64 80 25 216 83 284 119 22 12 62 58 129 146 10 14 44 73 74 130 41 77 59
124 67 175 6 39 16 86 22 106 18 64 -2 239 -28 239 -3 0 -12 -7 -20 -15 -24
-23 -53 -18 -84 15 -26 28 -94 60 -126 60 -31 0 -54 -42 -54 -102 0 -61 -4
-65 -44 -47 -39 18 -74 4 -91 -38 -8 -20 -18 -33 -22 -29 -4 4 -8 68 -9 142
-2 112 0 136 12 141 19 7 46 62 68 138 10 33 29 97 43 142 27 90 25 125 -9
168 -20 25 -25 26 -74 20 -52 -6 -54 -5 -54 17 0 26 16 93 30 123 16 35 40
175 40 230 0 73 -13 84 -91 79 -34 -2 -70 -6 -81 -9 -17 -6 -18 -3 -13 47 4
29 10 71 15 93 11 46 13 149 4 183 -6 19 -13 22 -58 21 -28 0 -73 -4 -100 -8
l-50 -8 -48 50 c-26 28 -48 53 -48 57 0 8 -124 111 -175 145 -55 37 -106 65
-119 65 -8 0 -19 6 -25 14 -7 8 -35 19 -64 26 -29 6 -69 18 -90 26 -41 15
-261 44 -338 44 -40 0 -48 3 -53 23 -11 43 -5 63 38 110 56 62 86 149 86 253
0 90 -17 129 -88 203 -60 62 -103 81 -185 81 -53 0 -71 -5 -103 -26z m109 -31
c-7 -2 -19 -2 -25 0 -7 3 -2 5 12 5 14 0 19 -2 13 -5z m-80 -27 c-15 -13 -30
-22 -32 -20 -7 7 31 44 46 44 8 0 2 -10 -14 -24z m131 17 c-5 -5 -12 -12 -16
-18 -4 -6 -8 -2 -8 8 0 9 7 17 17 17 9 0 12 -3 7 -7z m30 -30 c-10 -7 -23 -13
-28 -12 -6 0 -5 3 2 6 6 2 12 11 12 19 0 8 6 11 16 7 15 -6 15 -8 -2 -20z
m-78 0 c-4 -26 -35 -29 -33 -4 1 13 8 21 18 21 11 0 16 -7 15 -17z m-59 -8 c0
-8 -7 -15 -15 -15 -10 0 -12 -7 -9 -23 4 -12 2 -29 -3 -37 -7 -11 -10 -8 -10
13 0 20 -6 30 -20 34 -11 3 -20 9 -20 13 0 5 8 6 19 3 10 -2 25 2 32 11 18 20
26 20 26 1z m139 -32 c-5 -40 -6 -41 -17 -15 -9 24 -5 42 11 42 5 0 7 -12 6
-27z m-56 -3 c-8 -5 -17 -7 -19 -4 -3 3 1 9 9 14 8 5 17 7 19 4 3 -3 -1 -9 -9
-14z m-60 6 c0 -2 -7 -7 -16 -10 -8 -3 -12 -2 -9 4 6 10 25 14 25 6z m70 -39
c0 -5 -12 -6 -26 -3 -32 8 -67 -2 -58 -16 4 -7 2 -8 -4 -4 -7 4 -12 2 -12 -5
0 -7 -2 -10 -5 -8 -2 3 -2 14 1 25 4 17 14 20 55 20 27 0 49 -4 49 -9z m-207
-22 c-3 -9 -8 -14 -10 -11 -3 3 -2 9 2 15 9 16 15 13 8 -4z m272 -16 c5 -14
16 -19 41 -19 21 0 33 -4 29 -10 -7 -11 -73 -9 -92 3 -10 6 -11 0 -7 -23 6
-27 3 -31 -26 -41 -27 -10 -30 -13 -16 -21 11 -6 22 -5 32 3 16 13 30 6 20
-10 -4 -5 -31 -13 -61 -16 -30 -4 -55 -11 -55 -16 0 -5 -4 -9 -10 -9 -5 0 -10
6 -10 14 0 10 13 16 38 19 24 3 21 4 -10 2 -27 -1 -48 2 -48 6 0 5 10 9 23 9
20 1 20 2 4 11 -13 8 -22 7 -33 -2 -8 -6 -18 -9 -21 -5 -4 4 -1 11 7 17 13 8
13 10 1 18 -12 8 -12 14 -3 33 11 20 11 21 7 2 -4 -15 2 -26 19 -38 29 -19 97
-21 114 -4 20 20 14 65 -10 82 l-22 16 22 0 c12 0 22 -4 22 -10 0 -5 5 -10 11
-10 6 0 9 7 6 14 -4 10 -1 13 8 10 8 -3 17 -14 20 -25z m-250 -61 c-2 -46 -1
-68 3 -49 6 31 32 57 32 33 0 -6 -6 -12 -12 -14 -14 -5 6 -30 32 -41 8 -3 2
-5 -15 -4 -21 1 -30 -3 -33 -16 -7 -34 7 -67 28 -67 22 0 23 -1 14 -24 -3 -9
-12 -16 -19 -16 -8 0 -17 -9 -20 -20 -3 -11 -10 -20 -15 -20 -14 0 -21 55 -10
84 13 35 13 76 0 76 -5 0 -10 12 -10 27 0 26 22 133 27 133 1 0 0 -37 -2 -82z
m34 40 c-1 -35 -2 -38 -8 -18 -7 23 -4 60 5 60 2 0 4 -19 3 -42z m236 32 c3
-5 1 -10 -4 -10 -6 0 -11 5 -11 10 0 6 2 10 4 10 3 0 8 -4 11 -10z m-304 -57
c-12 -20 -14 -14 -5 12 4 9 9 14 11 11 3 -2 0 -13 -6 -23z m179 12 c0 -8 -4
-15 -10 -15 -5 0 -10 7 -10 15 0 8 5 15 10 15 6 0 10 -7 10 -15z m197 -17 c-3
-8 -6 -5 -6 6 -1 11 2 17 5 13 3 -3 4 -12 1 -19z m-37 -18 c0 -4 -6 -13 -14
-19 -20 -17 -27 -61 -10 -61 8 0 14 -4 14 -10 0 -17 -25 -11 -43 11 -18 20
-17 21 2 38 12 10 21 28 21 39 0 15 5 20 15 16 8 -4 15 -10 15 -14z m37 -32
c-3 -8 -6 -5 -6 6 -1 11 2 17 5 13 3 -3 4 -12 1 -19z m-369 -83 c1 -31 -1 -35
-8 -20 -5 11 -8 40 -8 65 0 37 1 41 8 20 4 -14 8 -43 8 -65z m342 -5 c0 -5 -4
-10 -10 -10 -5 0 -10 5 -10 10 0 6 5 10 10 10 6 0 10 -4 10 -10z m-60 -25 c0
-8 -4 -15 -10 -15 -5 0 -10 7 -10 15 0 8 5 15 10 15 6 0 10 -7 10 -15z m22
-30 c-9 -13 -19 -19 -21 -13 -2 6 2 14 9 18 7 5 10 15 6 25 -5 15 -4 16 8 5
14 -11 13 -15 -2 -35z m-59 18 c-7 -2 -21 -2 -30 0 -10 3 -4 5 12 5 17 0 24
-2 18 -5z m-37 -82 c-3 -5 -25 -7 -49 -5 l-42 4 43 -11 c24 -6 42 -13 39 -15
-2 -3 -32 1 -66 9 -51 12 -59 12 -50 1 8 -10 8 -14 0 -14 -6 0 -11 5 -11 10 0
6 -9 10 -21 10 -11 0 -18 3 -16 8 3 4 44 8 92 10 52 1 84 -1 81 -7z m39 -1
c-3 -5 -11 -10 -16 -10 -6 0 -7 5 -4 10 3 6 11 10 16 10 6 0 7 -4 4 -10z
m-110 -40 c13 -6 15 -9 5 -9 -8 0 -22 4 -30 9 -18 12 -2 12 25 0z m123 -62
c16 -16 15 -48 0 -52 -7 -3 -41 -7 -76 -10 l-63 -6 3 33 c3 30 6 32 48 38 73
10 75 10 88 -3z m172 -104 c218 -26 374 -61 420 -93 14 -10 44 -28 67 -39 23
-12 67 -52 98 -89 31 -38 77 -90 103 -118 141 -154 265 -423 335 -725 61 -264
59 -240 59 -659 l0 -391 31 0 c30 0 117 27 127 40 3 4 25 16 50 28 50 24 220
158 220 173 0 20 30 8 36 -15 10 -40 -31 -222 -78 -346 -29 -75 -108 -193
-147 -218 -14 -9 -28 -19 -31 -22 -3 -3 -16 -11 -29 -18 -13 -8 -40 -23 -60
-34 -20 -11 -63 -27 -96 -35 -131 -31 -151 -38 -190 -62 -22 -14 -41 -29 -43
-33 -2 -5 -10 -8 -18 -8 -11 0 -14 -23 -15 -112 0 -62 -4 -139 -8 -171 -7 -55
-6 -61 20 -88 17 -18 37 -29 54 -29 21 0 26 -4 23 -22 -4 -26 -7 -26 -173 -34
-105 -6 -132 -4 -142 7 -7 9 -14 77 -19 172 -4 86 -10 157 -13 157 -4 0 -47
-9 -97 -21 -49 -11 -141 -25 -204 -29 -168 -12 -466 -12 -535 1 -33 6 -89 13
-124 15 -35 2 -100 11 -144 19 -43 8 -83 15 -87 15 -4 0 -7 -22 -5 -50 2 -27
0 -52 -4 -55 -5 -2 -6 -48 -4 -102 5 -138 7 -137 -143 -122 -66 7 -124 16
-130 21 -6 4 -20 6 -30 2 -24 -7 25 37 79 72 21 14 36 28 34 32 -3 4 -16 32
-30 64 -14 31 -30 59 -36 62 -5 3 -12 24 -16 46 -4 22 -11 42 -16 46 -5 3 -9
39 -9 80 0 57 -4 78 -17 92 -31 31 -88 116 -96 142 -20 60 -31 188 -31 365 0
154 4 216 23 325 12 74 26 144 31 155 5 11 16 66 26 123 9 56 21 102 25 102 4
0 11 17 15 38 6 37 43 114 57 120 4 2 7 19 7 38 0 19 15 65 34 102 51 102 51
112 11 168 -19 27 -38 56 -41 64 -3 8 -15 35 -27 60 -20 40 -22 59 -21 189 0
99 4 146 12 149 6 2 14 19 18 38 3 19 10 34 15 34 5 0 6 6 3 14 -3 7 2 20 10
29 9 9 16 20 16 26 0 6 5 11 10 11 6 0 15 10 21 23 21 48 78 118 120 150 24
19 78 46 119 62 41 16 80 32 85 36 14 10 141 32 157 27 7 -3 37 3 67 12 57 18
65 18 271 -6z m982 -461 c2 -27 0 -55 -4 -63 -3 -8 -10 -31 -15 -50 l-9 -35
-22 44 c-12 25 -22 51 -22 58 0 7 -4 13 -9 13 -7 0 -31 51 -31 64 0 1 17 3 37
4 21 2 39 5 42 7 17 17 30 0 33 -42z m152 -350 c-4 -21 -11 -46 -16 -56 -5
-10 -7 -25 -4 -34 5 -11 2 -13 -10 -9 -12 5 -15 2 -10 -10 4 -9 4 -32 0 -51
-6 -30 -8 -32 -18 -16 -7 10 -20 54 -30 97 -9 44 -22 86 -29 95 -10 12 -8 13
16 9 15 -3 27 -1 27 3 0 5 18 9 40 9 l41 0 -7 -37z m60 -423 c23 -8 26 -15 26
-60 0 -38 -3 -49 -12 -44 -9 6 -9 3 0 -9 12 -13 11 -21 -1 -44 -9 -15 -18 -37
-22 -47 -10 -34 -24 -4 -29 68 -3 38 -10 74 -16 80 -15 15 -12 46 5 46 8 0 15
5 15 10 0 12 2 12 34 0z m-27 -272 c-3 -8 -6 -5 -6 6 -1 11 2 17 5 13 3 -3 4
-12 1 -19z m298 -278 c-3 -4 2 -11 10 -14 12 -4 13 -10 5 -25 -11 -22 -67 -53
-74 -42 -12 19 -9 103 4 111 15 9 63 -17 55 -30z m-141 -130 c14 -14 -7 -53
-37 -69 -32 -17 -62 -8 -52 17 4 9 7 24 8 32 0 38 50 50 81 20z"/>
<path d="M2770 4910 c0 -11 5 -20 10 -20 6 0 10 9 10 20 0 11 -4 20 -10 20 -5
0 -10 -9 -10 -20z"/>
<path d="M2467 4244 c-4 -4 -7 -20 -7 -35 0 -22 6 -30 25 -35 40 -10 57 2 53
38 -3 29 -7 33 -33 36 -17 2 -34 0 -38 -4z"/>
<path d="M3722 4144 c-7 -8 -12 -29 -10 -47 2 -25 8 -33 26 -35 50 -7 69 42
30 78 -26 24 -29 24 -46 4z"/>
<path d="M3143 4079 c-10 -10 -7 -17 13 -36 21 -19 36 -23 93 -23 50 0 72 4
82 16 17 20 -1 51 -27 45 -32 -6 -87 -5 -119 3 -20 5 -34 3 -42 -5z"/>
<path d="M3822 2983 c-11 -27 -23 -59 -27 -73 -4 -13 -25 -57 -46 -96 -49 -93
-56 -131 -34 -178 13 -28 25 -37 52 -42 57 -11 137 2 200 33 52 25 62 35 96
98 28 51 40 86 44 130 3 33 10 65 14 71 10 12 2 24 -17 24 -6 0 -15 -11 -18
-24 -3 -13 -22 -52 -41 -86 -19 -34 -35 -65 -35 -69 0 -29 -87 -83 -153 -95
-73 -14 -98 15 -57 67 11 14 20 30 20 36 0 7 11 33 24 59 35 70 58 149 51 172
-4 12 -15 20 -29 20 -19 0 -28 -10 -44 -47z"/>
<path d="M2353 2984 c-7 -3 -13 -12 -13 -21 0 -16 46 -158 60 -185 13 -23 34
-148 26 -155 -15 -15 -147 102 -166 148 -11 26 -18 30 -44 27 -30 -3 -31 -4
-28 -46 3 -50 23 -73 136 -153 57 -40 77 -49 111 -49 24 0 47 6 52 13 31 38
15 170 -40 327 -29 84 -36 95 -57 97 -14 1 -31 -1 -37 -3z"/>
<path d="M4130 4120 c0 -5 5 -10 10 -10 6 0 10 5 10 10 0 6 -4 10 -10 10 -5 0
-10 -4 -10 -10z"/>
<path d="M4265 3701 c-3 -5 -1 -12 5 -16 5 -3 10 1 10 9 0 18 -6 21 -15 7z"/>
</g>
</svg>
